<svg width="300" height="300" viewBox="0 0 300 300" fill="none" xmlns="http://www.w3.org/2000/svg">
<path d="M88.3999 154.54C88.3999 143.86 96.0399 136.74 103.88 136.74C111.86 136.74 119.54 144 119.36 154.38V154.54C119.36 165.24 111.7 172.34 103.88 172.34C96.2399 172.34 88.3999 165.16 88.3999 154.54ZM182.14 154.54C182.14 148.9 183.86 144.94 186.02 142.56C187.257 141.245 188.765 140.215 190.44 139.542C192.115 138.868 193.917 138.567 195.72 138.66C203.54 138.66 211.2 145.76 211.2 156.46C211.2 167.14 203.54 174.26 195.72 174.26C192.52 174.26 189.4 172.7 186.72 169.16C183.684 164.902 182.08 159.769 182.14 154.54Z" fill="#72E3FC"/>
<path fill-rule="evenodd" clip-rule="evenodd" d="M76 242.84C81.54 245 87.66 247.18 94.36 249.18C82.56 261.42 64.28 278.58 64.28 278.58C7.52 276.78 0 230.28 0 230.28C0 147.6 37 48.4 37 48.4C73.96 20.66 109.14 21.4 109.14 21.4L112.4 43.32C95.36 47.86 77.88 55.34 59.14 65.58L69.4 84.38C100.32 67.52 125.5 59.66 150.04 59.64C174.56 59.64 199.7 67.46 230.54 84.38L240.84 65.58C221.18 54.8 202.92 47.08 185.08 42.64L190.82 21.4C190.82 21.4 226.02 20.64 263 48.38C263 48.38 299.98 147.56 299.98 230.26C299.98 230.26 292.46 276.76 235.7 278.56C235.7 278.56 218.62 261.72 207.34 249.58C213.26 247.78 219.26 245.58 225.34 243.06C236.408 238.866 246.968 233.438 256.82 226.88L245.02 208.98C235.18 215.48 225.88 219.98 217.66 223.04L217.52 223.1L217.42 223.14L217.22 223.22C206.03 228.002 194.326 231.479 182.34 233.58L182.16 233.6C161.479 237.406 140.271 237.325 119.62 233.36C107.372 230.958 95.369 227.444 83.76 222.86C73.68 218.92 65.06 214.74 56.72 208.9L44.44 226.46C54.2418 233.176 64.8268 238.67 75.96 242.82L76 242.84ZM103.88 115.32C82.42 115.32 66.96 133.92 66.96 154.54C66.96 175.26 82.76 193.78 103.88 193.78C125.3 193.78 140.74 175.24 140.78 154.64C141.08 133.72 125.14 115.32 103.88 115.32ZM195.72 117.24C185.58 117.24 176.54 121.1 170.12 128.18C163.82 135.18 160.72 144.54 160.72 154.54C160.72 164.54 163.84 174.44 169.64 182.1C175.5 189.86 184.52 195.7 195.72 195.7C217.18 195.7 232.62 177.1 232.62 156.46C232.62 135.82 217.18 117.24 195.72 117.24Z" fill="#72E3FC"/>
</svg>
